<?xml version="1.0" ?><svg width="64px" height="64px" viewBox="0 0 64 64" data-name="Layer 1" id="Layer_1" xmlns="http://www.w3.org/2000/svg"><defs><style>.cls-1{fill:#ffb300;}.cls-2{fill:#0074ff;}</style></defs><title/><path class="cls-1" d="M32,59.59A11.78,11.78,0,0,1,20.7,51a2,2,0,0,1,1.93-2.54H41.37A2,2,0,0,1,43.3,51,11.78,11.78,0,0,1,32,59.59Zm-6.19-7.1a7.73,7.73,0,0,0,12.38,0Z"/><path class="cls-2" d="M47.91,45.91H16.09a2,2,0,0,1-2-2V26.33a17.91,17.91,0,1,1,35.82,0v2.59a2,2,0,0,1-4,0V26.33a13.91,13.91,0,1,0-27.82,0V41.91H45.91v-2.4a2,2,0,1,1,4,0v4.4A2,2,0,0,1,47.91,45.91Z"/><path class="cls-2" d="M52.49,52.49h-41a2,2,0,0,1-2-2V43.91a2,2,0,0,1,2-2h41a2,2,0,0,1,2,2v6.58A2,2,0,0,1,52.49,52.49Zm-39-4h37V45.91h-37Z"/><path class="cls-2" d="M32,12.42a2,2,0,0,1-2-2v-4a2,2,0,1,1,4,0v4A2,2,0,0,1,32,12.42Z"/></svg>