<?xml version="1.0" encoding="iso-8859-1"?>
<!-- Generator: Adobe Illustrator 19.0.0, SVG Export Plug-In . SVG Version: 6.00 Build 0)  -->
<svg version="1.1" id="Layer_1" xmlns="http://www.w3.org/2000/svg" xmlns:xlink="http://www.w3.org/1999/xlink" x="0px" y="0px"
	 viewBox="0 0 512 512" style="enable-background:new 0 0 512 512;" xml:space="preserve">
<circle style="fill:#FFD15D;" cx="256" cy="256" r="256"/>
<path style="fill:#F9B54C;" d="M510.567,283.15L376.567,149.149l-52.831-36.304H195.663l-84.937,84.937v115.107l22.835,47.819
	L283.393,510.54C402.975,497.817,497.957,402.766,510.567,283.15z"/>
<path style="fill:#324A5E;" d="M256,94.815c-88.876,0-161.185,72.308-161.185,161.185S167.124,417.185,256,417.185
	S417.185,344.878,417.185,256S344.878,94.815,256,94.815z M341.592,245.657c-0.476-14.786-1.964-28.975-4.344-42.331
	c7.382,2.513,14.352,5.375,20.789,8.594c19.104,9.552,31.803,21.454,36.455,33.735h-52.9V245.657z M320.877,245.657h-54.534v-54.534
	c16.987,0.59,33.356,2.627,48.54,5.994C318.252,212.301,320.288,228.669,320.877,245.657z M266.343,170.408V117.51
	c12.281,4.653,24.183,17.349,33.735,36.454c3.219,6.437,6.082,13.407,8.594,20.789C295.321,172.372,281.129,170.884,266.343,170.408
	z M245.657,117.51v52.898c-14.786,0.476-28.975,1.964-42.331,4.344c2.513-7.382,5.375-14.35,8.594-20.789
	C221.474,134.859,233.375,122.163,245.657,117.51z M245.657,191.123v54.534h-54.534c0.59-16.987,2.627-33.356,5.994-48.54
	C212.301,193.75,228.671,191.712,245.657,191.123z M170.41,245.657h-52.9c4.653-12.283,17.349-24.183,36.455-33.735
	c6.437-3.219,13.407-6.082,20.789-8.594C172.372,216.681,170.886,230.871,170.41,245.657z M170.41,266.343
	c0.476,14.786,1.964,28.975,4.344,42.331c-7.382-2.513-14.352-5.375-20.789-8.594c-19.104-9.552-31.803-21.454-36.455-33.735h52.9
	V266.343z M191.123,266.343h54.534v54.534c-16.987-0.59-33.356-2.627-48.54-5.994C193.75,299.699,191.712,283.331,191.123,266.343z
	 M245.657,341.592v52.898c-12.281-4.653-24.183-17.349-33.735-36.454c-3.219-6.437-6.082-13.407-8.594-20.789
	C216.681,339.628,230.872,341.116,245.657,341.592z M266.343,394.49v-52.898c14.786-0.476,28.975-1.964,42.331-4.344
	c-2.513,7.382-5.375,14.35-8.594,20.789C290.528,377.141,278.626,389.837,266.343,394.49z M266.343,320.877v-54.534h54.534
	c-0.59,16.987-2.627,33.356-5.994,48.54C299.701,318.25,283.331,320.288,266.343,320.877z M341.592,266.343h52.898
	c-4.653,12.283-17.349,24.183-36.455,33.735c-6.437,3.219-13.407,6.082-20.789,8.594
	C339.628,295.319,341.116,281.129,341.592,266.343z M387.065,205.476c-14.326-10.609-33.142-19.328-55.098-25.441
	c-6.113-21.954-14.832-40.772-25.441-55.098C343.409,139.204,372.796,168.593,387.065,205.476z M205.476,124.937
	c-10.609,14.326-19.328,33.144-25.441,55.098c-21.954,6.113-40.772,14.832-55.098,25.441
	C139.204,168.593,168.593,139.204,205.476,124.937z M124.937,306.524c14.326,10.609,33.142,19.328,55.098,25.441
	c6.113,21.954,14.832,40.772,25.441,55.098C168.593,372.796,139.204,343.407,124.937,306.524z M306.526,387.063
	c10.609-14.326,19.328-33.144,25.441-55.098c21.954-6.113,40.772-14.832,55.098-25.441
	C372.796,343.407,343.409,372.796,306.526,387.063z"/>
<path style="fill:#2B3B4E;" d="M256,94.815c-0.193,0-0.383,0.007-0.574,0.007v322.357c0.191,0,0.383,0.007,0.574,0.007
	c88.878,0,161.185-72.307,161.185-161.185S344.878,94.815,256,94.815z M387.065,205.476c-14.326-10.609-33.142-19.328-55.098-25.441
	c-6.113-21.954-14.832-40.772-25.441-55.098C343.409,139.204,372.796,168.593,387.065,205.476z M394.49,245.657h-52.898
	c-0.476-14.786-1.964-28.975-4.344-42.331c7.382,2.513,14.352,5.375,20.789,8.594C377.141,221.474,389.839,233.374,394.49,245.657z
	 M266.343,117.51c12.281,4.653,24.183,17.349,33.735,36.454c3.219,6.437,6.082,13.407,8.594,20.789
	c-13.353-2.381-27.545-3.868-42.331-4.344V117.51H266.343z M266.343,191.123c16.987,0.59,33.356,2.627,48.54,5.994
	c3.367,15.184,5.404,31.554,5.994,48.54h-54.534V191.123z M266.343,266.343h54.534c-0.59,16.987-2.627,33.356-5.994,48.54
	c-15.184,3.367-31.554,5.404-48.54,5.994V266.343z M266.343,394.49v-52.898c14.786-0.476,28.975-1.964,42.331-4.344
	c-2.513,7.382-5.375,14.35-8.594,20.789C290.528,377.141,278.626,389.837,266.343,394.49z M306.526,387.063
	c10.609-14.326,19.328-33.144,25.441-55.098c21.954-6.113,40.772-14.832,55.098-25.441
	C372.796,343.407,343.409,372.796,306.526,387.063z M358.036,300.079c-6.437,3.219-13.407,6.082-20.789,8.594
	c2.381-13.355,3.868-27.545,4.344-42.331h52.898C389.837,278.626,377.141,290.526,358.036,300.079z"/>
<g>
</g>
<g>
</g>
<g>
</g>
<g>
</g>
<g>
</g>
<g>
</g>
<g>
</g>
<g>
</g>
<g>
</g>
<g>
</g>
<g>
</g>
<g>
</g>
<g>
</g>
<g>
</g>
<g>
</g>
</svg>
