<?xml version="1.0" encoding="iso-8859-1"?>
<!-- Generator: Adobe Illustrator 19.0.0, SVG Export Plug-In . SVG Version: 6.00 Build 0)  -->
<svg version="1.1" id="Layer_1" xmlns="http://www.w3.org/2000/svg" xmlns:xlink="http://www.w3.org/1999/xlink" x="0px" y="0px"
	 viewBox="0 0 514.64 514.64" style="enable-background:new 0 0 514.64 514.64;" xml:space="preserve">
<polyline style="fill:#38C6B4;" points="201.328,376.72 118.832,376.72 35.744,469.792 478.912,469.792 395.824,376.72 
	313.328,376.72 "/>
<polygon style="fill:#222077;" points="514.64,485.792 0,485.792 111.68,360.72 201.328,360.72 201.328,392.72 125.984,392.72 
	71.472,453.792 443.184,453.792 388.656,392.72 313.328,392.72 313.328,360.72 402.976,360.72 "/>
<path style="fill:#DBDBDB;" d="M254.368,369.792C216.448,320.24,144.8,213.104,144.8,161.824c0-72.16,43.12-116.976,112.528-116.976
	s112.528,44.816,112.528,116.976c0,46.176-58.992,140.912-109.504,208l-3.008,3.92L254.368,369.792z"/>
<g>
	<path style="fill:#222077;" d="M257.328,60.848c60.448,0,96.528,37.744,96.528,100.976c0,36.88-48.4,119.2-96.528,185.216
		C216.464,291.296,160.8,201.728,160.8,161.824C160.8,98.592,196.88,60.848,257.328,60.848 M257.328,28.848
		c-78.112,0-128.528,52.208-128.528,132.976c0,67.328,101.248,202.48,112.816,217.616l15.712,20.768l15.824-20.768
		c11.472-15.232,112.704-150.384,112.704-217.616C385.856,81.056,335.44,28.848,257.328,28.848L257.328,28.848z"/>
	<circle style="fill:#222077;" cx="257.328" cy="161.792" r="41.632"/>
</g>
<g>
</g>
<g>
</g>
<g>
</g>
<g>
</g>
<g>
</g>
<g>
</g>
<g>
</g>
<g>
</g>
<g>
</g>
<g>
</g>
<g>
</g>
<g>
</g>
<g>
</g>
<g>
</g>
<g>
</g>
</svg>
