<svg width="26" height="16" viewBox="0 0 26 16" fill="none" xmlns="http://www.w3.org/2000/svg">
<path d="M11.75 13.4032H24.25C24.5815 13.4032 24.8995 13.5349 25.1339 13.7693C25.3683 14.0037 25.5 14.3216 25.5 14.6532C25.5 14.9847 25.3683 15.3026 25.1339 15.5371C24.8995 15.7715 24.5815 15.9032 24.25 15.9032H11.75C11.4185 15.9032 11.1005 15.7715 10.8661 15.5371C10.6317 15.3026 10.5 14.9847 10.5 14.6532C10.5 14.3216 10.6317 14.0037 10.8661 13.7693C11.1005 13.5349 11.4185 13.4032 11.75 13.4032ZM24.25 3.40317H1.75C1.41848 3.40317 1.10054 3.27147 0.866116 3.03705C0.631695 2.80263 0.5 2.48469 0.5 2.15317C0.5 1.82165 0.631695 1.5037 0.866116 1.26928C1.10054 1.03486 1.41848 0.903168 1.75 0.903168H24.25C24.5815 0.903168 24.8995 1.03486 25.1339 1.26928C25.3683 1.5037 25.5 1.82165 25.5 2.15317C25.5 2.48469 25.3683 2.80263 25.1339 3.03705C24.8995 3.27147 24.5815 3.40317 24.25 3.40317ZM1.75 7.15317H24.25C24.5815 7.15317 24.8995 7.28486 25.1339 7.51928C25.3683 7.75371 25.5 8.07165 25.5 8.40317C25.5 8.73469 25.3683 9.05263 25.1339 9.28705C24.8995 9.52147 24.5815 9.65317 24.25 9.65317H1.75C1.41848 9.65317 1.10054 9.52147 0.866116 9.28705C0.631695 9.05263 0.5 8.73469 0.5 8.40317C0.5 8.07165 0.631695 7.75371 0.866116 7.51928C1.10054 7.28486 1.41848 7.15317 1.75 7.15317Z" fill="#212427"/>
</svg>
