<?xml version="1.0" encoding="iso-8859-1"?>
<!-- Generator: Adobe Illustrator 19.0.0, SVG Export Plug-In . SVG Version: 6.00 Build 0)  -->
<svg version="1.1" id="Layer_1" xmlns="http://www.w3.org/2000/svg" xmlns:xlink="http://www.w3.org/1999/xlink" x="0px" y="0px"
	 viewBox="0 0 512 512" style="enable-background:new 0 0 512 512;" xml:space="preserve">
<g>
	<path style="fill:#5286FA;" d="M256,326.462c-38.853,0-70.462,31.608-70.462,70.462s31.609,70.462,70.462,70.462
		c38.851,0,70.462-31.608,70.462-70.462S294.853,326.462,256,326.462z"/>
	<path style="fill:#5286FA;" d="M139.744,280.666c-9.171,9.171-9.171,24.042,0,33.216c9.171,9.174,24.043,9.171,33.216,0
		c45.788-45.785,120.293-45.785,166.08,0c4.588,4.588,10.597,6.88,16.607,6.88c6.011,0,12.022-2.294,16.607-6.88
		c9.171-9.173,9.171-24.043,0-33.216C308.153,216.563,203.849,216.563,139.744,280.666z"/>
	<path style="fill:#5286FA;" d="M73.311,214.236c-9.173,9.171-9.173,24.043,0,33.216c9.173,9.171,24.043,9.171,33.216,0
		c82.42-82.42,216.526-82.42,298.947,0c4.586,4.586,10.596,6.88,16.607,6.88s12.022-2.294,16.609-6.88
		c9.173-9.171,9.173-24.043,0-33.216C337.955,113.501,174.046,113.501,73.311,214.236z"/>
	<path style="fill:#5286FA;" d="M256,44.614c-94.106,0-182.579,36.646-249.121,103.189c-9.173,9.171-9.173,24.043,0,33.216
		c9.171,9.171,24.043,9.171,33.216,0C97.764,123.35,174.441,91.589,256,91.589s158.236,31.761,215.905,89.43
		c4.586,4.588,10.596,6.88,16.609,6.88c6.01,0,12.022-2.294,16.607-6.88c9.173-9.171,9.173-24.043,0-33.216
		C438.579,81.262,350.106,44.614,256,44.614z"/>
</g>
<g>
	<path style="fill:#424EDE;" d="M185.538,396.924c0,38.853,31.611,70.462,70.462,70.462V326.462
		C217.149,326.462,185.538,358.071,185.538,396.924z"/>
	<path style="fill:#424EDE;" d="M139.744,313.882c9.171,9.174,24.043,9.171,33.216,0c22.894-22.892,52.967-34.338,83.04-34.338
		v-46.954c-42.102,0-84.204,16.026-116.256,48.079C130.573,289.839,130.573,304.71,139.744,313.882z"/>
	<path style="fill:#424EDE;" d="M73.311,247.451c9.171,9.171,24.043,9.171,33.216,0c41.209-41.209,95.341-61.815,149.473-61.815
		v-46.951c-66.161,0-132.321,25.183-182.689,75.551C64.138,223.407,64.138,238.28,73.311,247.451z"/>
	<path style="fill:#424EDE;" d="M6.881,147.805c-9.173,9.171-9.173,24.043,0,33.216c9.171,9.171,24.043,9.171,33.216,0
		c57.669-57.669,134.346-89.43,215.905-89.43V44.616C161.896,44.614,73.422,81.262,6.881,147.805z"/>
</g>
<g>
</g>
<g>
</g>
<g>
</g>
<g>
</g>
<g>
</g>
<g>
</g>
<g>
</g>
<g>
</g>
<g>
</g>
<g>
</g>
<g>
</g>
<g>
</g>
<g>
</g>
<g>
</g>
<g>
</g>
</svg>
